<svg width="24" height="24" viewBox="0 0 24 24" fill="none" xmlns="http://www.w3.org/2000/svg">
<path d="M5.7677 9.89307C5.52799 9.89307 5.31492 9.98752 5.15512 10.1629C4.982 10.3383 4.9021 10.5542 4.9021 10.8106C4.9021 11.067 4.982 11.2694 5.15512 11.4583C5.32824 11.6337 5.52799 11.7282 5.7677 11.7282C6.0074 11.7282 6.22047 11.6337 6.39359 11.4583C6.56671 11.2829 6.65993 11.067 6.65993 10.8106C6.65993 10.5542 6.56671 10.3383 6.39359 10.1629C6.22047 9.97403 6.02072 9.89307 5.7677 9.89307Z" fill="black"/>
<path d="M13.2384 9.87927C12.9987 9.87927 12.7856 9.97373 12.6258 10.1491C12.4527 10.3245 12.3728 10.5404 12.3728 10.7968C12.3728 11.0532 12.4527 11.2556 12.6258 11.4445C12.7989 11.6199 12.9987 11.7144 13.2384 11.7144C13.4781 11.7144 13.6912 11.6199 13.8643 11.4445C14.0374 11.2691 14.1306 11.0532 14.1306 10.7968C14.1306 10.5404 14.0374 10.338 13.8643 10.1491C13.7045 9.96023 13.4914 9.87927 13.2384 9.87927Z" fill="black"/>
<path d="M18.2323 9.89307C17.9926 9.89307 17.7795 9.98752 17.6197 10.1629C17.4466 10.3383 17.3667 10.5542 17.3667 10.8106C17.3667 11.067 17.4466 11.2694 17.6197 11.4583C17.7928 11.6337 17.9926 11.7282 18.2323 11.7282C18.472 11.7282 18.6851 11.6337 18.8582 11.4583C19.0313 11.2829 19.1245 11.067 19.1245 10.8106C19.1245 10.5542 19.0313 10.3383 18.8582 10.1629C18.6851 9.97403 18.472 9.89307 18.2323 9.89307Z" fill="black"/>
<path d="M20.4429 3.22729H3.55704C2.2653 3.22729 1.19995 4.30676 1.19995 5.6156V15.2903C1.19995 16.5991 2.2653 17.6786 3.55704 17.6786H10.1889C10.1889 17.6786 11.4673 21.2273 11.9334 21.2273C12.3995 21.2273 13.7844 17.6786 13.7844 17.6786H20.4429C21.7346 17.6786 22.8 16.5991 22.8 15.2903V5.6156C22.8 4.30676 21.7346 3.22729 20.4429 3.22729ZM7.47221 12.1598C7.13929 12.5376 6.61993 12.6996 6.06062 12.6996C5.55457 12.6996 5.1817 12.5511 4.91536 12.3352H4.90205V12.6051H3.63694V7.00541H4.90205V9.15083H4.92868C5.27492 8.85398 5.72769 8.75953 6.26037 8.73254C6.71315 8.71905 7.19255 9.00241 7.48553 9.33974C7.76518 9.67707 7.97825 10.2033 7.97825 10.7835C7.97825 11.4177 7.81845 11.782 7.47221 12.1598ZM10.2022 12.6591H8.91043C8.91043 12.6591 8.91043 9.71755 8.91043 9.19131C8.91043 8.39521 8.28454 8.28726 8.28454 8.28726V6.89746C8.28454 6.89746 10.0956 7.00541 10.2022 9.23179C10.2022 9.86598 10.2022 12.6591 10.2022 12.6591ZM15.2759 11.5931C15.1694 11.8495 15.0096 12.0654 14.7965 12.2678C14.5967 12.4567 14.357 12.6051 14.0907 12.7131C13.8244 12.821 13.5447 12.875 13.2517 12.875C12.9588 12.875 12.6791 12.821 12.4261 12.7131C12.1598 12.6051 11.9201 12.4567 11.7203 12.2678C11.5072 12.0654 11.3474 11.836 11.2409 11.5931C11.1344 11.3502 11.0811 11.0804 11.0811 10.797C11.0811 10.5137 11.1344 10.2573 11.2409 10.0009C11.3474 9.75803 11.5072 9.52864 11.7203 9.32625C11.9334 9.13734 12.1598 8.98891 12.4261 8.88097C12.6924 8.77302 12.9721 8.71905 13.2517 8.71905C13.5447 8.71905 13.8244 8.77302 14.0907 8.88097C14.357 8.98891 14.5967 9.13734 14.7965 9.32625C15.0096 9.52864 15.1561 9.74454 15.2759 10.0009C15.3824 10.2573 15.4357 10.5137 15.4357 10.797C15.4357 11.0804 15.3824 11.3367 15.2759 11.5931ZM20.363 12.1463C20.363 13.1313 20.1765 13.725 19.7504 14.1433C19.231 14.6426 18.4986 14.6696 17.886 14.5886V13.5766C18.4054 13.6306 19.1112 13.2798 19.1112 12.6051V12.3487H19.0979C18.8049 12.7535 18.3921 12.902 17.8194 12.902C17.3001 12.902 16.8473 12.7131 16.541 12.3487C16.2347 11.9844 16.0882 11.4987 16.0882 10.8915C16.0882 10.2033 16.2614 9.66358 16.5943 9.25878C16.9405 8.85398 17.4199 8.66508 17.9792 8.66508C18.472 8.66508 18.7916 8.78652 19.0979 9.06987H19.1112V8.75953H20.3763V12.1463H20.363Z" fill="black"/>
</svg>
