<svg width="20" height="18" viewBox="0 0 20 18" fill="none" xmlns="http://www.w3.org/2000/svg">
<path d="M9.24613 2.70225L10 3.56726L10.7539 2.70225C11.6582 1.66462 13.0554 1 14.5 1C17.051 1 19 2.93929 19 5.3951C19 6.91164 18.3128 8.37146 16.888 10.0814C15.4526 11.8039 13.3805 13.6521 10.7853 15.9629C10.7853 15.963 10.7852 15.963 10.7852 15.9631C10.7851 15.9631 10.7851 15.9632 10.785 15.9633L10 16.6616L9.21502 15.9633C9.21495 15.9632 9.21488 15.9631 9.21482 15.9631C9.21476 15.963 9.21471 15.963 9.21466 15.9629C6.61952 13.6521 4.54736 11.8039 3.112 10.0814C1.68719 8.37146 1 6.91164 1 5.3951C1 2.93929 2.94904 1 5.5 1C6.94456 1 8.3418 1.66462 9.24613 2.70225Z" stroke="black" stroke-width="2"/>
</svg>
