<svg width="22" height="16" viewBox="0 0 22 16" fill="none" xmlns="http://www.w3.org/2000/svg">
<path fill-rule="evenodd" clip-rule="evenodd" d="M19.5978 0.715691C20.5447 0.96794 21.2898 1.71693 21.5421 2.67159C22 4.39853 21.9961 7.99987 21.9961 7.99987C21.9961 7.99987 21.9961 11.6012 21.5382 13.3281C21.2859 14.2789 20.5408 15.0279 19.5939 15.284C17.8786 15.7459 10.9981 15.7459 10.9981 15.7459C10.9981 15.7459 4.11748 15.7459 2.40219 15.284C1.45528 15.0318 0.710178 14.2828 0.457929 13.3281C0 11.6012 0 7.99987 0 7.99987C0 7.99987 0 4.39853 0.46181 2.66771C0.714059 1.71693 1.45916 0.96794 2.40607 0.71181C4.12136 0.25 11.0019 0.25 11.0019 0.25C11.0019 0.25 17.8786 0.25 19.5978 0.715691ZM8.7511 4.72842V11.2714L14.5024 7.9999L8.7511 4.72842Z" fill="black"/>
</svg>
